<?xml version="1.0" encoding="UTF-8" standalone="no"?>
<svg
   width="1372"
   height="1372"
   version="1.1"
   viewBox="0 0 1372 1372"
   id="svg142"
   xmlns="http://www.w3.org/2000/svg"
   xmlns:svg="http://www.w3.org/2000/svg">
  <defs
     id="defs146" />
  <g
     id="g150"
     transform="scale(1.3398437)">
    <path
       d="M 512,0 C 229.23,0 0,229.23 0,512 c 0,282.77 229.23,512 512,512 282.77,0 512,-229.23 512,-512 C 1024,229.23 794.77,0 512,0 m 0,136.305 c 100.247,0 194.509,39.052 265.413,109.959 70.971,70.969 110.055,165.34 110.055,265.736 0,100.396 -39.084,194.767 -110.055,265.736 C 706.509,848.643 612.247,887.695 512,887.695 411.753,887.695 317.491,848.643 246.587,777.736 175.619,706.767 136.532,612.396 136.532,512 136.532,411.604 175.619,317.233 246.587,246.264 317.491,175.357 411.753,136.305 512,136.305"
       style="fill:#c30000;stroke-width:2.56"
       id="path138" />
    <path
       d="m 780.59,389.018 c -9.935,-36.67 -43.371,-60.693 -79.726,-59.963 h -0.256 c -72.888,-0.29 -393.249,0.153 -393.416,0.153 4.788,2.197 31.941,8.036 16.2,56.976 -9.341,34.16 -79.644,295.431 -82.747,306.987 0,0 109.594,-0.179 161.127,0 4.853,0 6.353,-2.015 7.493,-6.269 18.322,-68.178 65.533,-242.791 71.099,-261.822 4.165,-14.277 13.324,-23.636 28.915,-23.836 29.069,-0.371 58.153,-0.681 87.201,0.08 18.959,0.499 25.782,10.563 20.872,28.89 -14.37,53.601 -52.503,193.21 -59.807,223.262 -6.159,25.367 5.317,39.918 31.196,41.349 1.889,0.103 155.003,0.323 155.167,0.313 -4.787,-2.197 -31.939,-8.036 -16.197,-56.978 0,0 39.134,-144.522 45.435,-168.021 5.289,-19.732 10.15,-39.554 10.204,-60.039 0,-0.433 0,-10.88 -2.762,-21.069"
       style="fill:#c30000;stroke-width:2.56"
       id="path140" />
  </g>
</svg>
